<svg width="731" height="340" viewBox="0 0 731 340" fill="none" xmlns="http://www.w3.org/2000/svg">
<g filter="url(#filter0_d_202_18)">
<path d="M643.447 105.859C642.996 107.096 639.625 110.518 615.412 101.776L591.674 93.2063C583.411 90.2256 571.781 85.5384 567.224 82.8972C564.034 81.0512 563.337 76.9359 563.337 76.9359C563.337 76.9359 562.579 63.1905 562.114 59.8053C561.649 56.4201 562.556 55.8389 565.815 57.5175C567.843 58.5638 574.487 69.4308 577.273 74.1041C584.304 75.8757 590.581 77.6427 593.515 78.5169C592.32 70.5329 590.074 55.6017 589.27 50.9285C588.498 46.4505 591.827 48.4407 591.827 48.4407C593.366 49.3242 596.398 51.5144 597.435 53.1C604.513 63.9159 614.51 83.79 615.273 85.3152C619.439 86.6172 625.861 88.7237 629.697 90.1047C639.722 93.7271 644.051 104.213 643.447 105.859V105.859Z" fill="#EBC500"/>
</g>
<path d="M0.181818 207L15.6364 113.909H40.9091L34.9091 150.273H68.3636L74.3636 113.909H99.6364L84.1818 207H58.9091L64.9091 170.636H31.4545L25.4545 207H0.181818ZM120.364 207H93.0909L139.273 113.909H173.818L189.091 207H161.818L152.727 139.545H152L120.364 207ZM121.455 170.273H172.727L169.455 189.182H118.182L121.455 170.273ZM294.057 113.909L278.602 207H257.511L232.057 158.091H231.511L223.33 207H198.057L213.511 113.909H234.966L260.057 162.636H260.784L268.784 113.909H294.057ZM326.92 207H290.557L306.011 113.909H340.92C350.496 113.909 358.496 115.833 364.92 119.682C371.345 123.53 375.905 129.03 378.602 136.182C381.299 143.333 381.83 151.848 380.193 161.727C378.617 171.242 375.42 179.379 370.602 186.136C365.814 192.894 359.693 198.061 352.239 201.636C344.814 205.212 336.375 207 326.92 207ZM319.375 185.545H328.557C333.163 185.545 337.269 184.742 340.875 183.136C344.511 181.5 347.542 178.773 349.966 174.955C352.42 171.106 354.193 165.848 355.284 159.182C356.314 152.879 356.284 148.015 355.193 144.591C354.102 141.136 352.027 138.742 348.966 137.409C345.905 136.045 341.951 135.364 337.102 135.364H327.739L319.375 185.545ZM384.432 207L399.886 113.909H425.159L413.159 186.636H450.795L447.341 207H384.432ZM498.284 113.909L482.83 207H457.557L473.011 113.909H498.284ZM590.807 113.909L575.352 207H554.261L528.807 158.091H528.261L520.08 207H494.807L510.261 113.909H531.716L556.807 162.636H557.534L565.534 113.909H590.807ZM658.125 144.636C658.004 143.03 657.67 141.621 657.125 140.409C656.58 139.167 655.807 138.121 654.807 137.273C653.807 136.394 652.564 135.742 651.08 135.318C649.625 134.864 647.913 134.636 645.943 134.636C641.701 134.636 637.837 135.652 634.352 137.682C630.867 139.712 627.943 142.636 625.58 146.455C623.246 150.273 621.64 154.879 620.761 160.273C619.852 165.727 619.777 170.394 620.534 174.273C621.292 178.152 622.928 181.121 625.443 183.182C627.989 185.242 631.428 186.273 635.761 186.273C639.64 186.273 642.989 185.712 645.807 184.591C648.625 183.47 650.883 181.879 652.58 179.818C654.277 177.758 655.337 175.333 655.761 172.545L660.125 173H638.852L641.761 155H683.034L680.943 167.909C679.549 176.394 676.549 183.652 671.943 189.682C667.367 195.682 661.67 200.288 654.852 203.5C648.034 206.682 640.549 208.273 632.398 208.273C623.367 208.273 615.746 206.348 609.534 202.5C603.322 198.652 598.883 193.167 596.216 186.045C593.58 178.924 593.064 170.455 594.67 160.636C595.943 152.939 598.246 146.121 601.58 140.182C604.943 134.242 609.049 129.227 613.898 125.136C618.746 121.015 624.095 117.909 629.943 115.818C635.792 113.697 641.852 112.636 648.125 112.636C653.61 112.636 658.595 113.424 663.08 115C667.564 116.545 671.398 118.758 674.58 121.636C677.761 124.485 680.14 127.864 681.716 131.773C683.322 135.682 683.973 139.97 683.67 144.636H658.125Z" fill="black"/>
<g filter="url(#filter1_d_202_18)">
<path d="M453.318 239.909H440.682C440.773 238.833 440.712 237.864 440.5 237C440.288 236.136 439.924 235.394 439.409 234.773C438.894 234.136 438.22 233.652 437.386 233.318C436.553 232.985 435.561 232.818 434.409 232.818C432.197 232.818 430.22 233.371 428.477 234.477C426.735 235.568 425.288 237.136 424.136 239.182C422.985 241.212 422.167 243.636 421.682 246.455C421.258 249.182 421.242 251.447 421.636 253.25C422.045 255.053 422.841 256.402 424.023 257.295C425.22 258.189 426.773 258.636 428.682 258.636C429.955 258.636 431.121 258.485 432.182 258.182C433.258 257.879 434.212 257.447 435.045 256.886C435.894 256.311 436.614 255.629 437.205 254.841C437.811 254.038 438.273 253.152 438.591 252.182H451.318C450.833 254.152 449.97 256.167 448.727 258.227C447.485 260.273 445.879 262.159 443.909 263.886C441.939 265.598 439.621 266.985 436.955 268.045C434.288 269.106 431.288 269.636 427.955 269.636C423.591 269.636 419.826 268.682 416.659 266.773C413.508 264.864 411.22 262.076 409.795 258.409C408.386 254.742 408.106 250.273 408.955 245C409.803 239.909 411.477 235.644 413.977 232.205C416.477 228.765 419.515 226.174 423.091 224.432C426.667 222.689 430.47 221.818 434.5 221.818C437.545 221.818 440.273 222.22 442.682 223.023C445.106 223.826 447.144 225 448.795 226.545C450.462 228.076 451.689 229.962 452.477 232.205C453.265 234.447 453.545 237.015 453.318 239.909ZM454.278 269L462.006 222.455H495.551L493.824 232.636H472.915L471.642 240.636H490.824L489.097 250.818H469.915L468.642 258.818H489.46L487.733 269H454.278ZM542.091 222.455L534.364 269H523.818L511.091 244.545H510.818L506.727 269H494.091L501.818 222.455H512.545L525.091 246.818H525.455L529.455 222.455H542.091ZM545.068 232.636L546.795 222.455H587.25L585.523 232.636H571.523L565.523 269H553.068L559.068 232.636H545.068ZM584.278 269L592.006 222.455H625.551L623.824 232.636H602.915L601.642 240.636H620.824L619.097 250.818H599.915L598.642 258.818H619.46L617.733 269H584.278ZM624.091 269L631.818 222.455H651.909C655.364 222.455 658.28 223.083 660.659 224.341C663.038 225.598 664.75 227.409 665.795 229.773C666.841 232.136 667.091 234.97 666.545 238.273C666 241.606 664.795 244.417 662.932 246.705C661.083 248.977 658.727 250.705 655.864 251.886C653.015 253.053 649.818 253.636 646.273 253.636H634.273L635.909 243.818H645.364C646.848 243.818 648.152 243.636 649.273 243.273C650.394 242.894 651.303 242.303 652 241.5C652.697 240.682 653.152 239.606 653.364 238.273C653.576 236.939 653.47 235.856 653.045 235.023C652.621 234.174 651.917 233.553 650.932 233.159C649.947 232.75 648.727 232.545 647.273 232.545H642.818L636.727 269H624.091ZM654.909 247.636L663 269H649.273L641.455 247.636H654.909Z" fill="#EBC500"/>
</g>
<g filter="url(#filter2_d_202_18)">
<path d="M254.091 331L261.818 284.455H281.909C285.364 284.455 288.273 285.136 290.636 286.5C293 287.864 294.697 289.78 295.727 292.25C296.758 294.72 297 297.606 296.455 300.909C295.909 304.273 294.697 307.174 292.818 309.614C290.955 312.038 288.576 313.909 285.682 315.227C282.803 316.53 279.576 317.182 276 317.182H264L265.636 307.364H275.091C276.606 307.364 277.939 307.106 279.091 306.591C280.242 306.061 281.174 305.318 281.886 304.364C282.598 303.394 283.061 302.242 283.273 300.909C283.485 299.576 283.386 298.439 282.977 297.5C282.583 296.545 281.902 295.818 280.932 295.318C279.977 294.803 278.758 294.545 277.273 294.545H272.818L266.727 331H254.091ZM296.091 331L303.818 284.455H337.364L335.636 294.636H314.727L313.455 302.636H332.636L330.909 312.818H311.727L310.455 320.818H331.273L329.545 331H296.091ZM335.903 331L343.631 284.455H363.722C367.176 284.455 370.093 285.083 372.472 286.341C374.85 287.598 376.562 289.409 377.608 291.773C378.653 294.136 378.903 296.97 378.358 300.273C377.813 303.606 376.608 306.417 374.744 308.705C372.896 310.977 370.54 312.705 367.676 313.886C364.828 315.053 361.631 315.636 358.085 315.636H346.085L347.722 305.818H357.176C358.661 305.818 359.964 305.636 361.085 305.273C362.206 304.894 363.116 304.303 363.812 303.5C364.509 302.682 364.964 301.606 365.176 300.273C365.388 298.939 365.282 297.856 364.858 297.023C364.434 296.174 363.729 295.553 362.744 295.159C361.759 294.75 360.54 294.545 359.085 294.545H354.631L348.54 331H335.903ZM366.722 309.636L374.812 331H361.085L353.267 309.636H366.722ZM427.506 301.909H414.869C414.96 300.833 414.9 299.864 414.688 299C414.475 298.136 414.112 297.394 413.597 296.773C413.081 296.136 412.407 295.652 411.574 295.318C410.741 294.985 409.748 294.818 408.597 294.818C406.384 294.818 404.407 295.371 402.665 296.477C400.922 297.568 399.475 299.136 398.324 301.182C397.172 303.212 396.354 305.636 395.869 308.455C395.445 311.182 395.43 313.447 395.824 315.25C396.233 317.053 397.028 318.402 398.21 319.295C399.407 320.189 400.96 320.636 402.869 320.636C404.142 320.636 405.309 320.485 406.369 320.182C407.445 319.879 408.4 319.447 409.233 318.886C410.081 318.311 410.801 317.629 411.392 316.841C411.998 316.038 412.46 315.152 412.778 314.182H425.506C425.021 316.152 424.157 318.167 422.915 320.227C421.672 322.273 420.066 324.159 418.097 325.886C416.127 327.598 413.809 328.985 411.142 330.045C408.475 331.106 405.475 331.636 402.142 331.636C397.778 331.636 394.013 330.682 390.847 328.773C387.695 326.864 385.407 324.076 383.983 320.409C382.574 316.742 382.294 312.273 383.142 307C383.991 301.909 385.665 297.644 388.165 294.205C390.665 290.765 393.703 288.174 397.278 286.432C400.854 284.689 404.657 283.818 408.688 283.818C411.733 283.818 414.46 284.22 416.869 285.023C419.294 285.826 421.331 287 422.983 288.545C424.65 290.076 425.877 291.962 426.665 294.205C427.453 296.447 427.733 299.015 427.506 301.909ZM448.83 284.455L441.102 331H428.466L436.193 284.455H448.83ZM447.091 331L454.818 284.455H467.455L464.364 303.273H465L482.091 284.455H496.818L477.727 305.182L489.455 331H474.364L466.909 313.545L461.727 319.091L459.727 331H447.091ZM510.318 294.636L512.045 284.455H552.5L550.773 294.636H536.773L530.773 331H518.318L524.318 294.636H510.318ZM561.375 331.636C557.587 331.636 554.466 330.886 552.011 329.386C549.572 327.871 547.86 325.765 546.875 323.068C545.89 320.356 545.693 317.212 546.284 313.636C546.875 310.061 548.11 306.924 549.989 304.227C551.867 301.515 554.284 299.409 557.239 297.909C560.193 296.394 563.572 295.636 567.375 295.636C571.148 295.636 574.254 296.394 576.693 297.909C579.148 299.409 580.867 301.515 581.852 304.227C582.852 306.924 583.057 310.061 582.466 313.636C581.875 317.212 580.633 320.356 578.739 323.068C576.845 325.765 574.42 327.871 571.466 329.386C568.527 330.886 565.163 331.636 561.375 331.636ZM562.92 322.364C564.011 322.364 565.004 322.008 565.898 321.295C566.807 320.583 567.58 319.568 568.216 318.25C568.867 316.932 569.345 315.364 569.648 313.545C569.951 311.712 569.996 310.144 569.784 308.841C569.572 307.523 569.133 306.508 568.466 305.795C567.799 305.083 566.92 304.727 565.83 304.727C564.739 304.727 563.739 305.083 562.83 305.795C561.92 306.508 561.148 307.523 560.511 308.841C559.875 310.144 559.405 311.712 559.102 313.545C558.799 315.364 558.746 316.932 558.943 318.25C559.155 319.568 559.595 320.583 560.261 321.295C560.943 322.008 561.83 322.364 562.92 322.364ZM609.83 315.727L613.102 296.091H625.648L619.83 331H607.92L609.011 324.364H608.648C607.572 326.591 605.966 328.333 603.83 329.591C601.708 330.833 599.345 331.455 596.739 331.455C594.299 331.455 592.261 330.894 590.625 329.773C588.989 328.652 587.83 327.106 587.148 325.136C586.466 323.167 586.33 320.909 586.739 318.364L590.466 296.091H603.011L599.739 315.727C599.481 317.455 599.701 318.811 600.398 319.795C601.11 320.78 602.254 321.273 603.83 321.273C604.875 321.273 605.814 321.053 606.648 320.614C607.496 320.159 608.193 319.523 608.739 318.705C609.299 317.871 609.663 316.879 609.83 315.727ZM626.21 331L632.028 296.091H644.21L643.119 302.727H643.483C644.528 300.273 645.839 298.477 647.415 297.341C648.991 296.205 650.71 295.636 652.574 295.636C653.119 295.636 653.642 295.682 654.142 295.773C654.657 295.848 655.165 295.955 655.665 296.091L653.847 306.818C653.256 306.591 652.521 306.432 651.642 306.341C650.763 306.235 649.983 306.182 649.301 306.182C648.089 306.182 646.953 306.462 645.892 307.023C644.847 307.568 643.953 308.341 643.21 309.341C642.483 310.326 641.998 311.485 641.756 312.818L638.756 331H626.21ZM689.688 307.455H678.415C678.475 306.727 678.347 306.106 678.028 305.591C677.71 305.076 677.263 304.682 676.688 304.409C676.127 304.136 675.491 304 674.778 304C673.536 304 672.407 304.28 671.392 304.841C670.377 305.386 669.809 306.106 669.688 307C669.612 307.348 669.725 307.674 670.028 307.977C670.331 308.28 671.127 308.561 672.415 308.818L679.324 310.091C682.778 310.727 685.294 311.886 686.869 313.568C688.46 315.235 689.036 317.439 688.597 320.182C688.188 322.561 687.142 324.606 685.46 326.318C683.778 328.03 681.642 329.348 679.051 330.273C676.475 331.182 673.627 331.636 670.506 331.636C665.006 331.636 660.884 330.538 658.142 328.341C655.415 326.144 654.172 323.273 654.415 319.727H666.597C666.627 320.864 667.006 321.72 667.733 322.295C668.475 322.856 669.46 323.152 670.688 323.182C672.021 323.227 673.188 322.962 674.188 322.386C675.188 321.795 675.748 321.061 675.869 320.182C675.915 319.682 675.695 319.303 675.21 319.045C674.741 318.788 673.839 318.53 672.506 318.273L666.506 317.182C663.051 316.561 660.536 315.318 658.96 313.455C657.384 311.576 656.839 309.182 657.324 306.273C657.718 303.955 658.657 302.008 660.142 300.432C661.642 298.856 663.612 297.667 666.051 296.864C668.491 296.045 671.309 295.636 674.506 295.636C679.733 295.636 683.688 296.689 686.369 298.795C689.066 300.886 690.172 303.773 689.688 307.455Z" fill="black"/>
</g>
<g filter="url(#filter3_d_202_18)">
<path d="M185.5 50L185.615 50.4865L185.5 50ZM547.356 56.8459C547.546 58.3063 548.885 59.3356 550.345 59.145C551.805 58.9545 552.835 57.6161 552.644 56.1557C552.454 54.6953 551.115 53.666 549.655 53.8565C548.195 54.0471 547.165 55.3855 547.356 56.8459ZM19.5001 103.5C19.6685 103.971 19.6685 103.971 19.6685 103.971C19.6685 103.971 19.6685 103.971 19.6685 103.971C19.6686 103.971 19.6686 103.971 19.6687 103.971C19.6688 103.971 19.6689 103.971 19.6692 103.971C19.6696 103.971 19.6703 103.97 19.6712 103.97C19.6731 103.97 19.6758 103.969 19.6795 103.967C19.6869 103.965 19.6979 103.961 19.7125 103.955C19.7418 103.945 19.7856 103.929 19.8438 103.909C19.96 103.867 20.1333 103.805 20.3616 103.724C20.8182 103.561 21.4947 103.32 22.3743 103.007L22.0395 102.065C21.1595 102.378 20.4826 102.619 20.0257 102.782C19.7972 102.863 19.6238 102.925 19.5074 102.967C19.4492 102.988 19.4053 103.003 19.3759 103.014C19.3612 103.019 19.3502 103.023 19.3428 103.026C19.3391 103.027 19.3363 103.028 19.3344 103.029C19.3335 103.029 19.3328 103.029 19.3324 103.029C19.3321 103.029 19.3319 103.029 19.3318 103.03C19.3318 103.03 19.3317 103.03 19.3317 103.03C19.3317 103.03 19.3317 103.03 19.3317 103.03C19.3316 103.03 19.3316 103.03 19.5001 103.5ZM27.8639 101.063C29.4771 100.493 31.304 99.8494 33.322 99.1401L32.9904 98.1967C30.9719 98.9061 29.1446 99.5502 27.5309 100.12L27.8639 101.063ZM38.8542 97.2C40.5838 96.5948 42.4087 95.9575 44.3196 95.2917L43.9906 94.3474C42.0793 95.0133 40.254 95.6508 38.5239 96.2561L38.8542 97.2ZM49.8078 93.3836C51.5846 92.7671 53.4191 92.132 55.3053 91.4803L54.9788 90.5352C53.0922 91.1869 51.2573 91.8223 49.48 92.4388L49.8078 93.3836ZM60.8085 89.5833C62.6079 88.9644 64.4455 88.3337 66.3168 87.6929L65.9928 86.7468C64.1211 87.3878 62.2831 88.0186 60.4833 88.6377L60.8085 89.5833ZM71.8299 85.8094C73.6402 85.1925 75.4763 84.5681 77.3346 83.9378L77.0134 82.9908C75.1546 83.6212 73.318 84.2458 71.5073 84.8629L71.8299 85.8094ZM82.8353 82.0767C84.6559 81.4623 86.4936 80.8437 88.3453 80.2222L88.0271 79.2741C86.1749 79.8959 84.3366 80.5146 82.5156 81.1292L82.8353 82.0767ZM93.8631 78.3753C95.6948 77.7639 97.5368 77.151 99.3861 76.5375L99.0713 75.5883C97.2214 76.202 95.3788 76.8152 93.5465 77.4267L93.8631 78.3753ZM104.911 74.7106C106.749 74.1049 108.591 73.4999 110.434 72.8967L110.123 71.9463C108.279 72.5497 106.437 73.155 104.598 73.7609L104.911 74.7106ZM115.966 71.0935C117.814 70.4934 119.66 69.8963 121.502 69.3032L121.195 68.3513C119.353 68.9447 117.505 69.5421 115.657 70.1424L115.966 71.0935ZM127.039 67.5282C128.893 66.9368 130.74 66.3506 132.575 65.771L132.274 64.8174C130.437 65.3974 128.59 65.9838 126.735 66.5755L127.039 67.5282ZM138.129 64.0276C139.998 63.4441 141.853 62.8689 143.69 62.3031L143.396 61.3474C141.558 61.9136 139.701 62.4892 137.831 63.073L138.129 64.0276ZM149.257 60.6016C151.138 60.0311 152.996 59.4723 154.827 58.9269L154.541 57.9685C152.709 58.5145 150.849 59.0737 148.966 59.6447L149.257 60.6016ZM160.403 57.2829C162.301 56.7293 164.165 56.1927 165.988 55.6749L165.714 54.713C163.889 55.2314 162.024 55.7687 160.123 56.3229L160.403 57.2829ZM171.586 54.1098C173.517 53.5794 175.391 53.0747 177.203 52.5983L176.949 51.6312C175.133 52.1086 173.255 52.6143 171.321 53.1456L171.586 54.1098ZM182.842 51.1581C183.789 50.9242 184.714 50.7001 185.615 50.4865L185.385 49.5135C184.48 49.7279 183.552 49.9526 182.602 50.1873L182.842 51.1581ZM185.615 50.4865C186.566 50.2612 187.519 50.0389 188.475 49.8197L188.251 48.845C187.293 49.0648 186.338 49.2876 185.385 49.5135L185.615 50.4865ZM194.236 48.5408C196.165 48.1265 198.102 47.7243 200.049 47.3337L199.852 46.3533C197.901 46.7447 195.959 47.1479 194.026 47.5631L194.236 48.5408ZM205.827 46.2127C207.761 45.8503 209.703 45.4991 211.651 45.1587L211.479 44.1737C209.527 44.5147 207.581 44.8667 205.643 45.2299L205.827 46.2127ZM217.483 44.176C219.421 43.8611 221.365 43.5566 223.315 43.2624L223.166 42.2736C221.212 42.5683 219.264 42.8734 217.322 43.1889L217.483 44.176ZM229.183 42.4102C231.127 42.1387 233.075 41.877 235.029 41.625L234.901 40.6332C232.944 40.8857 230.992 41.1478 229.045 41.4198L229.183 42.4102ZM240.899 40.8981C242.855 40.6658 244.815 40.4429 246.779 40.2291L246.671 39.235C244.704 39.4491 242.74 39.6724 240.781 39.905L240.899 40.8981ZM252.653 39.6179C254.615 39.423 256.579 39.237 258.547 39.0596L258.457 38.0637C256.487 38.2413 254.519 38.4276 252.554 38.6228L252.653 39.6179ZM264.436 38.5549C266.398 38.3952 268.363 38.244 270.33 38.1008L270.258 37.1035C268.288 37.2468 266.32 37.3983 264.354 37.5582L264.436 38.5549ZM276.235 37.6957C278.2 37.5689 280.167 37.45 282.135 37.3387L282.079 36.3403C280.108 36.4517 278.138 36.5708 276.17 36.6978L276.235 37.6957ZM288.041 37.0279C290.01 36.9318 291.98 36.8432 293.95 36.7619L293.909 35.7628C291.936 35.8442 289.964 35.9329 287.992 36.0291L288.041 37.0279ZM299.861 36.5396C301.83 36.4726 303.8 36.4127 305.768 36.3597L305.741 35.3601C303.771 35.4132 301.799 35.4731 299.827 35.5402L299.861 36.5396ZM311.687 36.2208C313.659 36.1812 315.63 36.1484 317.599 36.1221L317.586 35.1222C315.614 35.1485 313.641 35.1814 311.667 35.221L311.687 36.2208ZM323.509 36.0623C325.486 36.0487 327.461 36.0415 329.432 36.0405L329.432 35.0405C327.458 35.0415 325.482 35.0488 323.503 35.0624L323.509 36.0623ZM335.338 36.0557C337.316 36.0669 339.29 36.0841 341.26 36.1071L341.272 35.1072C339.299 35.0841 337.323 35.0669 335.344 35.0557L335.338 36.0557ZM347.176 36.1937C349.147 36.2283 351.113 36.2686 353.074 36.3143L353.097 35.3146C351.134 35.2688 349.166 35.2285 347.194 35.1939L347.176 36.1937ZM359.007 36.4695C360.98 36.5266 362.947 36.589 364.908 36.6566L364.942 35.6572C362.98 35.5896 361.011 35.527 359.036 35.4699L359.007 36.4695ZM370.824 36.8765C372.804 36.9553 374.776 37.0393 376.741 37.128L376.787 36.129C374.82 36.0402 372.845 35.9562 370.864 35.8773L370.824 36.8765ZM382.621 37.4087C384.61 37.5087 386.59 37.6135 388.561 37.7228L388.617 36.7243C386.644 36.615 384.662 36.5101 382.672 36.41L382.621 37.4087ZM394.449 38.0639C396.43 38.1836 398.402 38.3077 400.364 38.4359L400.429 37.438C398.466 37.3097 396.492 37.1855 394.509 37.0657L394.449 38.0639ZM406.271 38.8363C408.24 38.9746 410.199 39.1168 412.146 39.2627L412.221 38.2655C410.272 38.1195 408.312 37.9771 406.341 37.8387L406.271 38.8363ZM418.077 39.7214C420.041 39.8779 421.993 40.038 423.931 40.2013L424.015 39.2049C422.075 39.0414 420.122 38.8812 418.156 38.7245L418.077 39.7214ZM429.867 40.7155C431.838 40.8908 433.794 41.0693 435.735 41.2506L435.828 40.2549C433.886 40.0735 431.928 39.8949 429.955 39.7195L429.867 40.7155ZM441.642 41.8159C443.62 42.0097 445.581 42.2063 447.523 42.4051L447.625 41.4103C445.682 41.2113 443.719 41.0146 441.739 40.8207L441.642 41.8159ZM453.404 43.0204C455.389 43.2325 457.354 43.4468 459.296 43.6629L459.407 42.669C457.463 42.4528 455.497 42.2383 453.51 42.0261L453.404 43.0204ZM465.159 44.3279C467.149 44.558 469.114 44.7896 471.053 45.0222L471.172 44.0294C469.232 43.7966 467.265 43.5648 465.273 43.3345L465.159 44.3279ZM476.911 45.738C478.902 45.9856 480.862 46.2339 482.79 46.4821L482.918 45.4903C480.988 45.2419 479.027 44.9935 477.034 44.7457L476.911 45.738ZM488.662 47.2511C490.645 47.5153 492.59 47.7787 494.495 48.0409L494.632 47.0503C492.725 46.7879 490.778 46.5242 488.794 46.2599L488.662 47.2511ZM500.402 48.8671C502.38 49.1483 504.31 49.4271 506.188 49.7027L506.333 48.7132C504.453 48.4375 502.522 48.1585 500.543 47.8771L500.402 48.8671ZM512.09 50.5822C514.118 50.8894 516.077 51.191 517.963 51.4858L518.117 50.4978C516.23 50.2027 514.27 49.9009 512.24 49.5935L512.09 50.5822ZM523.772 52.4082C525.805 52.7363 527.734 53.053 529.552 53.3561L529.717 52.3697C527.897 52.0663 525.966 51.7493 523.931 51.421L523.772 52.4082ZM535.365 54.3418C537.566 54.7217 539.538 55.0697 541.265 55.3797L541.441 54.3954C539.712 54.085 537.739 53.7367 535.535 53.3564L535.365 54.3418ZM547.079 56.4478C548.007 56.6229 548.713 56.7588 549.187 56.8509C549.424 56.8969 549.603 56.932 549.723 56.9556C549.782 56.9674 549.827 56.9763 549.857 56.9822C549.872 56.9852 549.884 56.9874 549.891 56.9889C549.895 56.9897 549.898 56.9902 549.899 56.9906C549.9 56.9908 549.901 56.9909 549.902 56.991C549.902 56.991 549.902 56.9911 549.902 56.9911C549.902 56.9911 549.902 56.9911 549.902 56.9911C549.902 56.9911 549.902 56.9911 549.902 56.9911C549.902 56.9911 549.902 56.9911 550 56.5008C550.098 56.0105 550.098 56.0105 550.098 56.0105C550.098 56.0105 550.098 56.0105 550.098 56.0105C550.098 56.0104 550.098 56.0104 550.098 56.0104C550.098 56.0104 550.097 56.0104 550.097 56.0103C550.097 56.0102 550.096 56.0101 550.095 56.0099C550.093 56.0095 550.09 56.0089 550.086 56.0081C550.079 56.0066 550.067 56.0043 550.052 56.0013C550.022 55.9953 549.976 55.9863 549.916 55.9745C549.795 55.9507 549.616 55.9155 549.378 55.8692C548.902 55.7768 548.194 55.6406 547.264 55.4652L547.079 56.4478ZM185.5 50L185.731 50.9731L185.5 50ZM544.712 57.191C545.093 60.1117 547.769 62.1704 550.69 61.7893C553.611 61.4081 555.67 58.7314 555.289 55.8106C554.907 52.8899 552.231 50.8311 549.31 51.2123C546.389 51.5935 544.33 54.2702 544.712 57.191ZM19.5001 103.5C19.8369 104.442 19.8369 104.442 19.8369 104.442C19.8369 104.442 19.8369 104.442 19.837 104.442C19.837 104.442 19.837 104.442 19.8371 104.442C19.8372 104.442 19.8374 104.442 19.8376 104.442C19.838 104.442 19.8387 104.441 19.8396 104.441C19.8415 104.44 19.8442 104.439 19.8479 104.438C19.8552 104.435 19.8662 104.431 19.8808 104.426C19.9101 104.416 19.9539 104.4 20.0119 104.379C20.1281 104.338 20.3013 104.276 20.5295 104.195C20.9859 104.032 21.6623 103.791 22.5417 103.479L21.8721 101.594C20.9919 101.907 20.3149 102.148 19.8578 102.311C19.6292 102.392 19.4557 102.454 19.3392 102.496C19.281 102.517 19.237 102.532 19.2076 102.543C19.1929 102.548 19.1818 102.552 19.1744 102.555C19.1707 102.556 19.1679 102.557 19.166 102.558C19.1651 102.558 19.1644 102.558 19.1639 102.559C19.1637 102.559 19.1635 102.559 19.1634 102.559C19.1633 102.559 19.1633 102.559 19.1633 102.559C19.1632 102.559 19.1632 102.559 19.1632 102.559C19.1632 102.559 19.1632 102.559 19.5001 103.5ZM28.0304 101.534C29.6434 100.965 31.47 100.321 33.4878 99.6118L32.8246 97.725C30.8058 98.4345 28.9783 99.0786 27.3643 99.6486L28.0304 101.534ZM39.0193 97.672C40.7488 97.0668 42.5734 96.4296 44.4842 95.7639L43.8261 93.8752C41.9145 94.5413 40.089 95.1788 38.3588 95.7842L39.0193 97.672ZM49.9717 93.856C51.7483 93.2396 53.5826 92.6045 55.4686 91.9529L54.8155 90.0626C52.9287 90.7144 51.0936 91.3498 49.3161 91.9665L49.9717 93.856ZM60.9712 90.0561C62.7704 89.4373 64.6077 88.8066 66.4788 88.1659L65.8309 86.2738C63.9589 86.9148 62.1207 87.5457 60.3206 88.1649L60.9712 90.0561ZM71.9912 86.2827C73.8012 85.6658 75.6371 85.0415 77.4952 84.4113L76.8528 82.5173C74.9937 83.1478 73.1569 83.7724 71.346 84.3896L71.9912 86.2827ZM82.9952 82.5504C84.8155 81.9361 86.653 81.3176 88.5044 80.6962L87.868 78.8001C86.0155 79.4219 84.177 80.0408 82.3557 80.6554L82.9952 82.5504ZM94.0214 78.8495C95.8528 78.2383 97.6945 77.6254 99.5436 77.0121L98.9139 75.1138C97.0636 75.7275 95.2208 76.3408 93.3882 76.9524L94.0214 78.8495ZM105.068 75.1855C106.905 74.5799 108.747 73.975 110.59 73.3719L109.968 71.4711C108.123 72.0746 106.28 72.68 104.442 73.286L105.068 75.1855ZM116.12 71.5691C117.968 70.9691 119.814 70.3721 121.655 69.7791L121.042 67.8754C119.199 68.4689 117.351 69.0664 115.502 69.6668L116.12 71.5691ZM127.191 68.0045C129.045 67.4133 130.891 66.8273 132.726 66.2478L132.124 64.3406C130.286 64.9207 128.439 65.5073 126.583 66.0992L127.191 68.0045ZM138.278 64.5049C140.147 63.9216 142.001 63.3465 143.838 62.7809L143.249 60.8695C141.41 61.4359 139.553 62.0117 137.682 62.5957L138.278 64.5049ZM149.402 61.0801C151.282 60.5098 153.139 59.9513 154.97 59.4061L154.399 57.4893C152.565 58.0355 150.705 58.595 148.821 59.1662L149.402 61.0801ZM160.543 57.763C162.44 57.2096 164.302 56.6733 166.124 56.1559L165.578 54.232C163.751 54.7508 161.885 55.2884 159.983 55.8429L160.543 57.763ZM171.718 54.592C173.648 54.062 175.52 53.5578 177.331 53.0819L176.822 51.1476C175.004 51.6256 173.124 52.1317 171.189 52.6634L171.718 54.592ZM182.962 51.6435C183.908 51.4099 184.831 51.1863 185.731 50.9731L185.269 49.027C184.363 49.2417 183.434 49.4669 182.483 49.7019L182.962 51.6435ZM185.731 50.9731C186.68 50.748 187.632 50.526 188.587 50.3071L188.139 48.3577C187.18 48.5777 186.224 48.8008 185.269 49.027L185.731 50.9731ZM194.341 49.0296C196.267 48.6159 198.203 48.2141 200.147 47.824L199.753 45.8631C197.801 46.2549 195.856 46.6585 193.921 47.0742L194.341 49.0296ZM205.919 46.7042C207.851 46.3422 209.791 45.9913 211.737 45.6513L211.393 43.6811C209.439 44.0225 207.491 44.3748 205.551 44.7384L205.919 46.7042ZM217.563 44.6695C219.499 44.3549 221.442 44.0507 223.39 43.7568L223.092 41.7792C221.136 42.0742 219.186 42.3796 217.242 42.6954L217.563 44.6695ZM229.252 42.9054C231.194 42.6341 233.141 42.3727 235.093 42.1209L234.837 40.1373C232.878 40.39 230.924 40.6524 228.976 40.9246L229.252 42.9054ZM240.958 41.3946C242.912 41.1625 244.871 40.9398 246.833 40.7262L246.617 38.7379C244.648 38.9522 242.683 39.1757 240.722 39.4085L240.958 41.3946ZM252.703 40.1154C254.663 39.9207 256.626 39.7348 258.592 39.5576L258.412 37.5657C256.44 37.7435 254.471 37.9299 252.505 38.1252L252.703 40.1154ZM264.476 39.0532C266.437 38.8937 268.401 38.7425 270.367 38.5995L270.222 36.6048C268.25 36.7482 266.281 36.8998 264.314 37.0598L264.476 39.0532ZM276.267 38.1946C278.231 38.0679 280.197 37.9491 282.163 37.8379L282.05 35.8411C280.079 35.9526 278.108 36.0717 276.138 36.1988L276.267 38.1946ZM288.065 37.5273C290.033 37.4313 292.002 37.3428 293.971 37.2615L293.888 35.2632C291.915 35.3447 289.941 35.4334 287.968 35.5297L288.065 37.5273ZM299.878 37.0393C301.846 36.9724 303.814 36.9125 305.782 36.8596L305.728 34.8603C303.756 34.9134 301.783 34.9734 299.81 35.0405L299.878 37.0393ZM311.697 36.7207C313.668 36.6812 315.638 36.6483 317.606 36.622L317.579 34.6222C315.607 34.6486 313.632 34.6815 311.657 34.7211L311.697 36.7207ZM323.513 36.5623C325.489 36.5487 327.462 36.5415 329.433 36.5405L329.432 34.5405C327.457 34.5415 325.479 34.5488 323.499 34.5624L323.513 36.5623ZM335.335 36.5557C337.312 36.5669 339.285 36.5841 341.254 36.6071L341.277 34.6072C339.304 34.5841 337.327 34.5669 335.346 34.5557L335.335 36.5557ZM347.168 36.6936C349.137 36.7282 351.102 36.7685 353.062 36.8142L353.109 34.8147C351.145 34.7689 349.176 34.7286 347.203 34.6939L347.168 36.6936ZM358.993 36.9692C360.965 37.0263 362.931 37.0888 364.891 37.1563L364.96 35.1575C362.996 35.0898 361.026 35.0273 359.051 34.9701L358.993 36.9692ZM370.804 37.3761C372.783 37.4549 374.755 37.5388 376.719 37.6275L376.809 35.6295C374.841 35.5407 372.866 35.4566 370.884 35.3777L370.804 37.3761ZM382.596 37.9081C384.584 38.0081 386.563 38.1128 388.534 38.222L388.644 36.2251C386.67 36.1157 384.688 36.0108 382.697 35.9106L382.596 37.9081ZM394.419 38.563C396.399 38.6826 398.37 38.8067 400.331 38.9348L400.461 36.9391C398.497 36.8107 396.523 36.6865 394.539 36.5666L394.419 38.563ZM406.236 39.3351C408.205 39.4733 410.162 39.6155 412.109 39.7613L412.258 37.7669C410.309 37.6208 408.348 37.4784 406.376 37.34L406.236 39.3351ZM418.037 40.2198C420.001 40.3763 421.951 40.5363 423.889 40.6996L424.057 38.7066C422.116 38.5431 420.163 38.3828 418.196 38.2261L418.037 40.2198ZM429.823 41.2136C431.793 41.3888 433.749 41.5672 435.688 41.7484L435.874 39.7571C433.932 39.5756 431.973 39.3969 430 39.2214L429.823 41.2136ZM441.593 42.3135C443.571 42.5073 445.531 42.7037 447.472 42.9025L447.676 40.9129C445.732 40.7138 443.769 40.5171 441.788 40.323L441.593 42.3135ZM453.351 43.5176C455.336 43.7296 457.299 43.9438 459.241 44.1598L459.462 42.1721C457.518 41.9558 455.551 41.7413 453.563 41.5289L453.351 43.5176ZM465.101 44.8246C467.091 45.0546 469.055 45.2861 470.993 45.5187L471.231 43.5329C469.291 43.3001 467.324 43.0682 465.331 42.8378L465.101 44.8246ZM476.849 46.2342C478.839 46.4817 480.799 46.7299 482.726 46.978L482.981 44.9944C481.051 44.7459 479.089 44.4974 477.096 44.2495L476.849 46.2342ZM488.596 47.7468C490.578 48.0108 492.522 48.2742 494.427 48.5363L494.7 46.5549C492.792 46.2924 490.845 46.0287 488.86 45.7643L488.596 47.7468ZM500.332 49.3621C502.309 49.6432 504.238 49.9219 506.116 50.1974L506.406 48.2185C504.525 47.9427 502.593 47.6635 500.613 47.382L500.332 49.3621ZM512.015 51.0766C514.043 51.3836 516.001 51.6851 517.886 51.9798L518.195 50.0037C516.306 49.7086 514.345 49.4066 512.315 49.0992L512.015 51.0766ZM523.692 52.9018C525.725 53.2298 527.652 53.5463 529.47 53.8493L529.799 51.8765C527.978 51.573 526.047 51.2559 524.011 50.9273L523.692 52.9018ZM535.28 54.8345C537.48 55.2143 539.45 55.562 541.176 55.8718L541.53 53.9033C539.799 53.5927 537.825 53.2442 535.62 52.8637L535.28 54.8345ZM546.986 56.9392C547.913 57.114 548.618 57.2498 549.092 57.3417C549.328 57.3877 549.507 57.4227 549.626 57.4462C549.686 57.4579 549.73 57.4668 549.76 57.4727C549.775 57.4756 549.786 57.4778 549.794 57.4793C549.797 57.48 549.8 57.4806 549.802 57.4809C549.803 57.4811 549.803 57.4812 549.804 57.4813C549.804 57.4814 549.804 57.4814 549.804 57.4814C549.804 57.4814 549.804 57.4814 549.804 57.4814C549.804 57.4814 549.804 57.4814 549.804 57.4814C549.804 57.4814 549.804 57.4814 550 56.5008C550.196 55.5201 550.196 55.5201 550.196 55.5201C550.196 55.5201 550.196 55.5201 550.196 55.5201C550.196 55.5201 550.196 55.5201 550.196 55.5201C550.195 55.5201 550.195 55.52 550.195 55.52C550.194 55.5199 550.194 55.5197 550.193 55.5195C550.191 55.5191 550.188 55.5185 550.184 55.5178C550.176 55.5162 550.165 55.5139 550.149 55.5109C550.119 55.5048 550.073 55.4958 550.013 55.4839C549.892 55.4601 549.711 55.4247 549.473 55.3784C548.996 55.2858 548.287 55.1494 547.357 54.9738L546.986 56.9392Z" fill="#EBC500"/>
</g>
<defs>
<filter id="filter0_d_202_18" x="558" y="48" width="89.5024" height="67.5638" filterUnits="userSpaceOnUse" color-interpolation-filters="sRGB">
<feFlood flood-opacity="0" result="BackgroundImageFix"/>
<feColorMatrix in="SourceAlpha" type="matrix" values="0 0 0 0 0 0 0 0 0 0 0 0 0 0 0 0 0 0 127 0" result="hardAlpha"/>
<feOffset dy="4"/>
<feGaussianBlur stdDeviation="2"/>
<feComposite in2="hardAlpha" operator="out"/>
<feColorMatrix type="matrix" values="0 0 0 0 0 0 0 0 0 0 0 0 0 0 0 0 0 0 0.25 0"/>
<feBlend mode="normal" in2="BackgroundImageFix" result="effect1_dropShadow_202_18"/>
<feBlend mode="normal" in="SourceGraphic" in2="effect1_dropShadow_202_18" result="shape"/>
</filter>
<filter id="filter1_d_202_18" x="403.682" y="221.818" width="267.682" height="55.8181" filterUnits="userSpaceOnUse" color-interpolation-filters="sRGB">
<feFlood flood-opacity="0" result="BackgroundImageFix"/>
<feColorMatrix in="SourceAlpha" type="matrix" values="0 0 0 0 0 0 0 0 0 0 0 0 0 0 0 0 0 0 127 0" result="hardAlpha"/>
<feOffset dy="4"/>
<feGaussianBlur stdDeviation="2"/>
<feComposite in2="hardAlpha" operator="out"/>
<feColorMatrix type="matrix" values="0 0 0 0 0 0 0 0 0 0 0 0 0 0 0 0 0 0 0.25 0"/>
<feBlend mode="normal" in2="BackgroundImageFix" result="effect1_dropShadow_202_18"/>
<feBlend mode="normal" in="SourceGraphic" in2="effect1_dropShadow_202_18" result="shape"/>
</filter>
<filter id="filter2_d_202_18" x="250.091" y="283.818" width="444.324" height="55.8181" filterUnits="userSpaceOnUse" color-interpolation-filters="sRGB">
<feFlood flood-opacity="0" result="BackgroundImageFix"/>
<feColorMatrix in="SourceAlpha" type="matrix" values="0 0 0 0 0 0 0 0 0 0 0 0 0 0 0 0 0 0 127 0" result="hardAlpha"/>
<feOffset dy="4"/>
<feGaussianBlur stdDeviation="2"/>
<feComposite in2="hardAlpha" operator="out"/>
<feColorMatrix type="matrix" values="0 0 0 0 0 0 0 0 0 0 0 0 0 0 0 0 0 0 0.25 0"/>
<feBlend mode="normal" in2="BackgroundImageFix" result="effect1_dropShadow_202_18"/>
<feBlend mode="normal" in="SourceGraphic" in2="effect1_dropShadow_202_18" result="shape"/>
</filter>
<filter id="filter3_d_202_18" x="15.1632" y="34.5405" width="544.171" height="77.9014" filterUnits="userSpaceOnUse" color-interpolation-filters="sRGB">
<feFlood flood-opacity="0" result="BackgroundImageFix"/>
<feColorMatrix in="SourceAlpha" type="matrix" values="0 0 0 0 0 0 0 0 0 0 0 0 0 0 0 0 0 0 127 0" result="hardAlpha"/>
<feOffset dy="4"/>
<feGaussianBlur stdDeviation="2"/>
<feComposite in2="hardAlpha" operator="out"/>
<feColorMatrix type="matrix" values="0 0 0 0 0 0 0 0 0 0 0 0 0 0 0 0 0 0 0.25 0"/>
<feBlend mode="normal" in2="BackgroundImageFix" result="effect1_dropShadow_202_18"/>
<feBlend mode="normal" in="SourceGraphic" in2="effect1_dropShadow_202_18" result="shape"/>
</filter>
</defs>
</svg>
