<svg width="731" height="314" viewBox="0 0 731 314" fill="none" xmlns="http://www.w3.org/2000/svg">
<g filter="url(#filter0_d_202_18)">
<path d="M552.56 37.1176C553.185 38.2278 553.601 42.7938 532.261 54.2336L511.339 65.4497C504.058 69.3556 493.451 74.5373 488.708 76.0522C485.389 77.1143 481.954 74.968 481.954 74.968C481.954 74.968 471.449 66.6928 468.69 64.8507C465.931 63.0086 466.067 61.9979 469.306 60.7794C471.323 60.0229 483.362 62.31 488.495 63.3444C494.132 59.5311 499.3 56.245 501.751 54.7401C495.183 50.4647 482.893 42.4769 478.984 40.0483C475.238 37.7219 478.748 36.654 478.748 36.654C480.344 36.1368 483.816 35.4064 485.614 35.6927C497.883 37.6427 518.571 43.3422 520.155 43.7828C523.68 41.6847 529.185 38.5147 532.563 36.6996C541.401 31.9646 551.732 35.6373 552.56 37.1176V37.1176Z" fill="#EBC500"/>
</g>
<path d="M0.181818 181L15.6364 87.9087H40.9091L34.9091 124.272H68.3636L74.3636 87.9087H99.6364L84.1818 181H58.9091L64.9091 144.636H31.4545L25.4545 181H0.181818ZM120.364 181H93.0909L139.273 87.9087H173.818L189.091 181H161.818L152.727 113.545H152L120.364 181ZM121.455 144.272H172.727L169.455 163.181H118.182L121.455 144.272ZM294.057 87.9087L278.602 181H257.511L232.057 132.091H231.511L223.33 181H198.057L213.511 87.9087H234.966L260.057 136.636H260.784L268.784 87.9087H294.057ZM326.92 181H290.557L306.011 87.9087H340.92C350.496 87.9087 358.496 89.833 364.92 93.6814C371.345 97.5299 375.905 103.03 378.602 110.181C381.299 117.333 381.83 125.848 380.193 135.727C378.617 145.242 375.42 153.378 370.602 160.136C365.814 166.894 359.693 172.06 352.239 175.636C344.814 179.212 336.375 181 326.92 181ZM319.375 159.545H328.557C333.163 159.545 337.269 158.742 340.875 157.136C344.511 155.5 347.542 152.772 349.966 148.954C352.42 145.106 354.193 139.848 355.284 133.181C356.314 126.878 356.284 122.015 355.193 118.591C354.102 115.136 352.027 112.742 348.966 111.409C345.905 110.045 341.951 109.363 337.102 109.363H327.739L319.375 159.545ZM384.432 181L399.886 87.9087H425.159L413.159 160.636H450.795L447.341 181H384.432ZM498.284 87.9087L482.83 181H457.557L473.011 87.9087H498.284ZM590.807 87.9087L575.352 181H554.261L528.807 132.091H528.261L520.08 181H494.807L510.261 87.9087H531.716L556.807 136.636H557.534L565.534 87.9087H590.807ZM658.125 118.636C658.004 117.03 657.67 115.621 657.125 114.409C656.58 113.166 655.807 112.121 654.807 111.272C653.807 110.394 652.564 109.742 651.08 109.318C649.625 108.863 647.913 108.636 645.943 108.636C641.701 108.636 637.837 109.651 634.352 111.681C630.867 113.712 627.943 116.636 625.58 120.454C623.246 124.272 621.64 128.878 620.761 134.272C619.852 139.727 619.777 144.394 620.534 148.272C621.292 152.151 622.928 155.121 625.443 157.181C627.989 159.242 631.428 160.272 635.761 160.272C639.64 160.272 642.989 159.712 645.807 158.591C648.625 157.469 650.883 155.878 652.58 153.818C654.277 151.757 655.337 149.333 655.761 146.545L660.125 147H638.852L641.761 129H683.034L680.943 141.909C679.549 150.394 676.549 157.651 671.943 163.681C667.367 169.681 661.67 174.288 654.852 177.5C648.034 180.681 640.549 182.272 632.398 182.272C623.367 182.272 615.746 180.348 609.534 176.5C603.322 172.651 598.883 167.166 596.216 160.045C593.58 152.924 593.064 144.454 594.67 134.636C595.943 126.939 598.246 120.121 601.58 114.181C604.943 108.242 609.049 103.227 613.898 99.136C618.746 95.0148 624.095 91.9087 629.943 89.8178C635.792 87.6966 641.852 86.636 648.125 86.636C653.61 86.636 658.595 87.4239 663.08 88.9996C667.564 90.5451 671.398 92.7572 674.58 95.636C677.761 98.4845 680.14 101.863 681.716 105.772C683.322 109.681 683.973 113.969 683.67 118.636H658.125Z" fill="black"/>
<g filter="url(#filter1_d_202_18)">
<path d="M453.318 213.909H440.682C440.773 212.833 440.712 211.863 440.5 211C440.288 210.136 439.924 209.394 439.409 208.772C438.894 208.136 438.22 207.651 437.386 207.318C436.553 206.984 435.561 206.818 434.409 206.818C432.197 206.818 430.22 207.371 428.477 208.477C426.735 209.568 425.288 211.136 424.136 213.181C422.985 215.212 422.167 217.636 421.682 220.454C421.258 223.181 421.242 225.447 421.636 227.25C422.045 229.053 422.841 230.401 424.023 231.295C425.22 232.189 426.773 232.636 428.682 232.636C429.955 232.636 431.121 232.484 432.182 232.181C433.258 231.878 434.212 231.447 435.045 230.886C435.894 230.31 436.614 229.628 437.205 228.841C437.811 228.038 438.273 227.151 438.591 226.181H451.318C450.833 228.151 449.97 230.166 448.727 232.227C447.485 234.272 445.879 236.159 443.909 237.886C441.939 239.598 439.621 240.984 436.955 242.045C434.288 243.106 431.288 243.636 427.955 243.636C423.591 243.636 419.826 242.681 416.659 240.772C413.508 238.863 411.22 236.075 409.795 232.409C408.386 228.742 408.106 224.272 408.955 219C409.803 213.909 411.477 209.644 413.977 206.204C416.477 202.765 419.515 200.174 423.091 198.431C426.667 196.689 430.47 195.818 434.5 195.818C437.545 195.818 440.273 196.219 442.682 197.022C445.106 197.825 447.144 199 448.795 200.545C450.462 202.075 451.689 203.962 452.477 206.204C453.265 208.447 453.545 211.015 453.318 213.909ZM454.278 243L462.006 196.454H495.551L493.824 206.636H472.915L471.642 214.636H490.824L489.097 224.818H469.915L468.642 232.818H489.46L487.733 243H454.278ZM542.091 196.454L534.364 243H523.818L511.091 218.545H510.818L506.727 243H494.091L501.818 196.454H512.545L525.091 220.818H525.455L529.455 196.454H542.091ZM545.068 206.636L546.795 196.454H587.25L585.523 206.636H571.523L565.523 243H553.068L559.068 206.636H545.068ZM584.278 243L592.006 196.454H625.551L623.824 206.636H602.915L601.642 214.636H620.824L619.097 224.818H599.915L598.642 232.818H619.46L617.733 243H584.278ZM624.091 243L631.818 196.454H651.909C655.364 196.454 658.28 197.083 660.659 198.341C663.038 199.598 664.75 201.409 665.795 203.772C666.841 206.136 667.091 208.969 666.545 212.272C666 215.606 664.795 218.416 662.932 220.704C661.083 222.977 658.727 224.704 655.864 225.886C653.015 227.053 649.818 227.636 646.273 227.636H634.273L635.909 217.818H645.364C646.848 217.818 648.152 217.636 649.273 217.272C650.394 216.894 651.303 216.303 652 215.5C652.697 214.681 653.152 213.606 653.364 212.272C653.576 210.939 653.47 209.856 653.045 209.022C652.621 208.174 651.917 207.553 650.932 207.159C649.947 206.75 648.727 206.545 647.273 206.545H642.818L636.727 243H624.091ZM654.909 221.636L663 243H649.273L641.455 221.636H654.909Z" fill="#EBC500"/>
</g>
<g filter="url(#filter2_d_202_18)">
<path d="M254.091 305L261.818 258.454H281.909C285.364 258.454 288.273 259.136 290.636 260.5C293 261.863 294.697 263.78 295.727 266.25C296.758 268.719 297 271.606 296.455 274.909C295.909 278.272 294.697 281.174 292.818 283.613C290.955 286.038 288.576 287.909 285.682 289.227C282.803 290.53 279.576 291.181 276 291.181H264L265.636 281.363H275.091C276.606 281.363 277.939 281.106 279.091 280.591C280.242 280.06 281.174 279.318 281.886 278.363C282.598 277.394 283.061 276.242 283.273 274.909C283.485 273.575 283.386 272.439 282.977 271.5C282.583 270.545 281.902 269.818 280.932 269.318C279.977 268.803 278.758 268.545 277.273 268.545H272.818L266.727 305H254.091ZM296.091 305L303.818 258.454H337.364L335.636 268.636H314.727L313.455 276.636H332.636L330.909 286.818H311.727L310.455 294.818H331.273L329.545 305H296.091ZM335.903 305L343.631 258.454H363.722C367.176 258.454 370.093 259.083 372.472 260.341C374.85 261.598 376.562 263.409 377.608 265.772C378.653 268.136 378.903 270.969 378.358 274.272C377.813 277.606 376.608 280.416 374.744 282.704C372.896 284.977 370.54 286.704 367.676 287.886C364.828 289.053 361.631 289.636 358.085 289.636H346.085L347.722 279.818H357.176C358.661 279.818 359.964 279.636 361.085 279.272C362.206 278.894 363.116 278.303 363.812 277.5C364.509 276.681 364.964 275.606 365.176 274.272C365.388 272.939 365.282 271.856 364.858 271.022C364.434 270.174 363.729 269.553 362.744 269.159C361.759 268.75 360.54 268.545 359.085 268.545H354.631L348.54 305H335.903ZM366.722 283.636L374.812 305H361.085L353.267 283.636H366.722ZM427.506 275.909H414.869C414.96 274.833 414.9 273.863 414.688 273C414.475 272.136 414.112 271.394 413.597 270.772C413.081 270.136 412.407 269.651 411.574 269.318C410.741 268.984 409.748 268.818 408.597 268.818C406.384 268.818 404.407 269.371 402.665 270.477C400.922 271.568 399.475 273.136 398.324 275.181C397.172 277.212 396.354 279.636 395.869 282.454C395.445 285.181 395.43 287.447 395.824 289.25C396.233 291.053 397.028 292.401 398.21 293.295C399.407 294.189 400.96 294.636 402.869 294.636C404.142 294.636 405.309 294.484 406.369 294.181C407.445 293.878 408.4 293.447 409.233 292.886C410.081 292.31 410.801 291.628 411.392 290.841C411.998 290.038 412.46 289.151 412.778 288.181H425.506C425.021 290.151 424.157 292.166 422.915 294.227C421.672 296.272 420.066 298.159 418.097 299.886C416.127 301.598 413.809 302.984 411.142 304.045C408.475 305.106 405.475 305.636 402.142 305.636C397.778 305.636 394.013 304.681 390.847 302.772C387.695 300.863 385.407 298.075 383.983 294.409C382.574 290.742 382.294 286.272 383.142 281C383.991 275.909 385.665 271.644 388.165 268.204C390.665 264.765 393.703 262.174 397.278 260.431C400.854 258.689 404.657 257.818 408.688 257.818C411.733 257.818 414.46 258.219 416.869 259.022C419.294 259.825 421.331 261 422.983 262.545C424.65 264.075 425.877 265.962 426.665 268.204C427.453 270.447 427.733 273.015 427.506 275.909ZM448.83 258.454L441.102 305H428.466L436.193 258.454H448.83ZM447.091 305L454.818 258.454H467.455L464.364 277.272H465L482.091 258.454H496.818L477.727 279.181L489.455 305H474.364L466.909 287.545L461.727 293.091L459.727 305H447.091ZM510.318 268.636L512.045 258.454H552.5L550.773 268.636H536.773L530.773 305H518.318L524.318 268.636H510.318ZM561.375 305.636C557.587 305.636 554.466 304.886 552.011 303.386C549.572 301.871 547.86 299.765 546.875 297.068C545.89 294.356 545.693 291.212 546.284 287.636C546.875 284.06 548.11 280.924 549.989 278.227C551.867 275.515 554.284 273.409 557.239 271.909C560.193 270.394 563.572 269.636 567.375 269.636C571.148 269.636 574.254 270.394 576.693 271.909C579.148 273.409 580.867 275.515 581.852 278.227C582.852 280.924 583.057 284.06 582.466 287.636C581.875 291.212 580.633 294.356 578.739 297.068C576.845 299.765 574.42 301.871 571.466 303.386C568.527 304.886 565.163 305.636 561.375 305.636ZM562.92 296.363C564.011 296.363 565.004 296.007 565.898 295.295C566.807 294.583 567.58 293.568 568.216 292.25C568.867 290.931 569.345 289.363 569.648 287.545C569.951 285.712 569.996 284.144 569.784 282.841C569.572 281.522 569.133 280.507 568.466 279.795C567.799 279.083 566.92 278.727 565.83 278.727C564.739 278.727 563.739 279.083 562.83 279.795C561.92 280.507 561.148 281.522 560.511 282.841C559.875 284.144 559.405 285.712 559.102 287.545C558.799 289.363 558.746 290.931 558.943 292.25C559.155 293.568 559.595 294.583 560.261 295.295C560.943 296.007 561.83 296.363 562.92 296.363ZM609.83 289.727L613.102 270.091H625.648L619.83 305H607.92L609.011 298.363H608.648C607.572 300.591 605.966 302.333 603.83 303.591C601.708 304.833 599.345 305.454 596.739 305.454C594.299 305.454 592.261 304.894 590.625 303.772C588.989 302.651 587.83 301.106 587.148 299.136C586.466 297.166 586.33 294.909 586.739 292.363L590.466 270.091H603.011L599.739 289.727C599.481 291.454 599.701 292.81 600.398 293.795C601.11 294.78 602.254 295.272 603.83 295.272C604.875 295.272 605.814 295.053 606.648 294.613C607.496 294.159 608.193 293.522 608.739 292.704C609.299 291.871 609.663 290.878 609.83 289.727ZM626.21 305L632.028 270.091H644.21L643.119 276.727H643.483C644.528 274.272 645.839 272.477 647.415 271.341C648.991 270.204 650.71 269.636 652.574 269.636C653.119 269.636 653.642 269.681 654.142 269.772C654.657 269.848 655.165 269.954 655.665 270.091L653.847 280.818C653.256 280.591 652.521 280.431 651.642 280.341C650.763 280.234 649.983 280.181 649.301 280.181C648.089 280.181 646.953 280.462 645.892 281.022C644.847 281.568 643.953 282.341 643.21 283.341C642.483 284.325 641.998 285.484 641.756 286.818L638.756 305H626.21ZM689.688 281.454H678.415C678.475 280.727 678.347 280.106 678.028 279.591C677.71 279.075 677.263 278.681 676.688 278.409C676.127 278.136 675.491 278 674.778 278C673.536 278 672.407 278.28 671.392 278.841C670.377 279.386 669.809 280.106 669.688 281C669.612 281.348 669.725 281.674 670.028 281.977C670.331 282.28 671.127 282.56 672.415 282.818L679.324 284.091C682.778 284.727 685.294 285.886 686.869 287.568C688.46 289.234 689.036 291.439 688.597 294.181C688.188 296.56 687.142 298.606 685.46 300.318C683.778 302.03 681.642 303.348 679.051 304.272C676.475 305.181 673.627 305.636 670.506 305.636C665.006 305.636 660.884 304.538 658.142 302.341C655.415 300.144 654.172 297.272 654.415 293.727H666.597C666.627 294.863 667.006 295.719 667.733 296.295C668.475 296.856 669.46 297.151 670.688 297.181C672.021 297.227 673.188 296.962 674.188 296.386C675.188 295.795 675.748 295.06 675.869 294.181C675.915 293.681 675.695 293.303 675.21 293.045C674.741 292.788 673.839 292.53 672.506 292.272L666.506 291.181C663.051 290.56 660.536 289.318 658.96 287.454C657.384 285.575 656.839 283.181 657.324 280.272C657.718 277.954 658.657 276.007 660.142 274.431C661.642 272.856 663.612 271.666 666.051 270.863C668.491 270.045 671.309 269.636 674.506 269.636C679.733 269.636 683.688 270.689 686.369 272.795C689.066 274.886 690.172 277.772 689.688 281.454Z" fill="black"/>
</g>
<defs>
<filter id="filter0_d_202_18" x="462.74" y="34.3596" width="94.016" height="49.9877" filterUnits="userSpaceOnUse" color-interpolation-filters="sRGB">
<feFlood flood-opacity="0" result="BackgroundImageFix"/>
<feColorMatrix in="SourceAlpha" type="matrix" values="0 0 0 0 0 0 0 0 0 0 0 0 0 0 0 0 0 0 127 0" result="hardAlpha"/>
<feOffset dy="4"/>
<feGaussianBlur stdDeviation="2"/>
<feComposite in2="hardAlpha" operator="out"/>
<feColorMatrix type="matrix" values="0 0 0 0 0 0 0 0 0 0 0 0 0 0 0 0 0 0 0.25 0"/>
<feBlend mode="normal" in2="BackgroundImageFix" result="effect1_dropShadow_202_18"/>
<feBlend mode="normal" in="SourceGraphic" in2="effect1_dropShadow_202_18" result="shape"/>
</filter>
<filter id="filter1_d_202_18" x="403.682" y="195.818" width="267.682" height="55.8181" filterUnits="userSpaceOnUse" color-interpolation-filters="sRGB">
<feFlood flood-opacity="0" result="BackgroundImageFix"/>
<feColorMatrix in="SourceAlpha" type="matrix" values="0 0 0 0 0 0 0 0 0 0 0 0 0 0 0 0 0 0 127 0" result="hardAlpha"/>
<feOffset dy="4"/>
<feGaussianBlur stdDeviation="2"/>
<feComposite in2="hardAlpha" operator="out"/>
<feColorMatrix type="matrix" values="0 0 0 0 0 0 0 0 0 0 0 0 0 0 0 0 0 0 0.25 0"/>
<feBlend mode="normal" in2="BackgroundImageFix" result="effect1_dropShadow_202_18"/>
<feBlend mode="normal" in="SourceGraphic" in2="effect1_dropShadow_202_18" result="shape"/>
</filter>
<filter id="filter2_d_202_18" x="250.091" y="257.818" width="444.324" height="55.8181" filterUnits="userSpaceOnUse" color-interpolation-filters="sRGB">
<feFlood flood-opacity="0" result="BackgroundImageFix"/>
<feColorMatrix in="SourceAlpha" type="matrix" values="0 0 0 0 0 0 0 0 0 0 0 0 0 0 0 0 0 0 127 0" result="hardAlpha"/>
<feOffset dy="4"/>
<feGaussianBlur stdDeviation="2"/>
<feComposite in2="hardAlpha" operator="out"/>
<feColorMatrix type="matrix" values="0 0 0 0 0 0 0 0 0 0 0 0 0 0 0 0 0 0 0.25 0"/>
<feBlend mode="normal" in2="BackgroundImageFix" result="effect1_dropShadow_202_18"/>
<feBlend mode="normal" in="SourceGraphic" in2="effect1_dropShadow_202_18" result="shape"/>
</filter>
</defs>
</svg>
