<svg width="31" height="29" viewBox="0 0 31 29" fill="none" xmlns="http://www.w3.org/2000/svg">
<path d="M14.4158 18.4525C14.2707 18.4525 14.1271 18.4252 13.9935 18.3724C13.8599 18.3195 13.7389 18.242 13.6379 18.1446L10.1146 14.7488C10.0138 14.6536 9.93422 14.5406 9.88041 14.4164C9.8266 14.2922 9.79964 14.1593 9.80108 14.0253C9.80253 13.8913 9.83235 13.7588 9.88883 13.6357C9.9453 13.5125 10.0273 13.4011 10.1301 13.3077C10.2329 13.2144 10.3545 13.1411 10.4878 13.092C10.6211 13.0428 10.7634 13.0189 10.9067 13.0216C11.0499 13.0243 11.1911 13.0535 11.3222 13.1075C11.4533 13.1616 11.5716 13.2394 11.6704 13.3365L14.3885 15.956L19.3049 10.881C19.4991 10.6862 19.7676 10.5707 20.0521 10.5595C20.3366 10.5483 20.6145 10.6423 20.8255 10.8211C21.0366 10.9999 21.164 11.2493 21.1802 11.5153C21.1964 11.7813 21.1001 12.0425 20.912 12.2426L15.2206 18.1201C15.1208 18.2229 14.9995 18.3054 14.8643 18.3625C14.729 18.4197 14.5826 18.4503 14.4342 18.4525H14.4158Z" fill="black"/>
</svg>
