<?xml version="1.0" encoding="iso-8859-1"?>
<!-- Generator: Adobe Illustrator 19.0.0, SVG Export Plug-In . SVG Version: 6.00 Build 0)  -->
<svg version="1.1" id="Capa_1" xmlns="http://www.w3.org/2000/svg" xmlns:xlink="http://www.w3.org/1999/xlink" x="0px" y="0px"
	 viewBox="0 0 512 512" style="enable-background:new 0 0 512 512;" xml:space="preserve">
<path style="fill:#ECEFF1;" d="M416,64H96c-17.632,0-32,14.368-32,32v384c0,17.664,14.368,32,32,32h320c17.664,0,32-14.336,32-32V96
	C448,78.368,433.664,64,416,64z"/>
<path style="fill:#90A4AE;" d="M336,448H176c-8.832,0-16-7.168-16-16s7.168-16,16-16h160c8.832,0,16,7.168,16,16
	S344.832,448,336,448z"/>
<path style="fill:#4CAF50;" d="M336,384H176c-8.832,0-16-7.168-16-16c0-44.128,35.904-80,80-80h16c-35.296,0-64-28.704-64-64
	s28.704-64,64-64s64,28.704,64,64s-28.704,64-64,64h16c44.128,0,80,35.872,80,80C352,376.832,344.832,384,336,384z"/>
<path style="fill:#455A64;" d="M208,128h96c8.832,0,16-7.168,16-16V64c0-35.296-28.704-64-64-64s-64,28.704-64,64v48
	C192,120.832,199.168,128,208,128z"/>
<g>
</g>
<g>
</g>
<g>
</g>
<g>
</g>
<g>
</g>
<g>
</g>
<g>
</g>
<g>
</g>
<g>
</g>
<g>
</g>
<g>
</g>
<g>
</g>
<g>
</g>
<g>
</g>
<g>
</g>
</svg>
